<?xml version="1.0" encoding="UTF-8" standalone="no"?>
<!-- Created with Inkscape (http://www.inkscape.org/) -->

<svg
   xmlns:dc="http://purl.org/dc/elements/1.1/"
   xmlns:cc="http://creativecommons.org/ns#"
   xmlns:rdf="http://www.w3.org/1999/02/22-rdf-syntax-ns#"
   xmlns:svg="http://www.w3.org/2000/svg"
   xmlns="http://www.w3.org/2000/svg"
   xmlns:sodipodi="http://sodipodi.sourceforge.net/DTD/sodipodi-0.dtd"
   xmlns:inkscape="http://www.inkscape.org/namespaces/inkscape"
   width="853.33331"
   height="640"
   id="svg4136"
   version="1.1"
   inkscape:version="0.92.1 r15371"
   viewBox="0 0 800 600"
   sodipodi:docname="slide-1-numbers.svg">
  <defs
     id="defs4138">
    <pattern
       patternUnits="userSpaceOnUse"
       width="221"
       height="220.97149"
       patternTransform="translate(88.666667,86.51425)"
       id="pattern6454">
      <path
         inkscape:connector-curvature="0"
         id="path6336"
         d="m 0.5,0 0,220.48575"
         style="fill:none;fill-rule:evenodd;stroke:#000000;stroke-width:0.97034842px;stroke-linecap:butt;stroke-linejoin:miter;stroke-opacity:1" />
      <path
         style="fill:none;fill-rule:evenodd;stroke:#000000;stroke-width:0.97034842px;stroke-linecap:butt;stroke-linejoin:miter;stroke-opacity:1"
         d="m 20.500003,0 0,220.48575"
         id="path6338"
         inkscape:connector-curvature="0" />
      <path
         style="fill:none;fill-rule:evenodd;stroke:#000000;stroke-width:0.97034842px;stroke-linecap:butt;stroke-linejoin:miter;stroke-opacity:1"
         d="m 40.500003,0 0,220.48575"
         id="path6340"
         inkscape:connector-curvature="0" />
      <path
         inkscape:connector-curvature="0"
         id="path6342"
         d="m 60.500003,0 0,220.48575"
         style="fill:none;fill-rule:evenodd;stroke:#000000;stroke-width:0.97034842px;stroke-linecap:butt;stroke-linejoin:miter;stroke-opacity:1" />
      <path
         style="fill:none;fill-rule:evenodd;stroke:#000000;stroke-width:0.97034842px;stroke-linecap:butt;stroke-linejoin:miter;stroke-opacity:1"
         d="m 80.500003,0 0,220.48575"
         id="path6344"
         inkscape:connector-curvature="0" />
      <path
         inkscape:connector-curvature="0"
         id="path6346"
         d="m 100.5,0 0,220.48575"
         style="fill:none;fill-rule:evenodd;stroke:#000000;stroke-width:0.97034842px;stroke-linecap:butt;stroke-linejoin:miter;stroke-opacity:1" />
      <path
         inkscape:connector-curvature="0"
         id="path6348"
         d="m 120.5,0 0,220.48575"
         style="fill:none;fill-rule:evenodd;stroke:#000000;stroke-width:0.97034842px;stroke-linecap:butt;stroke-linejoin:miter;stroke-opacity:1" />
      <path
         style="fill:none;fill-rule:evenodd;stroke:#000000;stroke-width:0.97034842px;stroke-linecap:butt;stroke-linejoin:miter;stroke-opacity:1"
         d="m 140.5,0 0,220.48575"
         id="path6350"
         inkscape:connector-curvature="0" />
      <path
         style="fill:none;fill-rule:evenodd;stroke:#000000;stroke-width:0.97034842px;stroke-linecap:butt;stroke-linejoin:miter;stroke-opacity:1"
         d="m 160.5,0 0,220.48575"
         id="path6352"
         inkscape:connector-curvature="0" />
      <path
         inkscape:connector-curvature="0"
         id="path6354"
         d="m 180.5,0 0,220.48575"
         style="fill:none;fill-rule:evenodd;stroke:#000000;stroke-width:0.97034842px;stroke-linecap:butt;stroke-linejoin:miter;stroke-opacity:1" />
      <path
         inkscape:connector-curvature="0"
         id="path6356"
         d="m 200.5,0 0,220.48575"
         style="fill:none;fill-rule:evenodd;stroke:#000000;stroke-width:0.97034842px;stroke-linecap:butt;stroke-linejoin:miter;stroke-opacity:1" />
      <path
         style="fill:none;fill-rule:evenodd;stroke:#000000;stroke-width:0.97034842px;stroke-linecap:butt;stroke-linejoin:miter;stroke-opacity:1"
         d="m 220.5,0 0,220.48575"
         id="path6358"
         inkscape:connector-curvature="0" />
      <g
         id="g6440"
         transform="translate(-88.666667,-86.51425)">
        <path
           style="fill:none;fill-rule:evenodd;stroke:#000000;stroke-width:0.97147942px;stroke-linecap:butt;stroke-linejoin:miter;stroke-opacity:1"
           d="m 88.666667,307 221.000003,0"
           id="path6336-2"
           inkscape:connector-curvature="0" />
        <path
           inkscape:connector-curvature="0"
           id="path6338-8"
           d="m 88.666667,286.99999 221.000003,0"
           style="fill:none;fill-rule:evenodd;stroke:#000000;stroke-width:0.97147942px;stroke-linecap:butt;stroke-linejoin:miter;stroke-opacity:1" />
        <path
           inkscape:connector-curvature="0"
           id="path6340-0"
           d="m 88.666667,266.99999 221.000003,0"
           style="fill:none;fill-rule:evenodd;stroke:#000000;stroke-width:0.97147942px;stroke-linecap:butt;stroke-linejoin:miter;stroke-opacity:1" />
        <path
           style="fill:none;fill-rule:evenodd;stroke:#000000;stroke-width:0.97147942px;stroke-linecap:butt;stroke-linejoin:miter;stroke-opacity:1"
           d="m 88.666667,246.99999 221.000003,0"
           id="path6342-2"
           inkscape:connector-curvature="0" />
        <path
           inkscape:connector-curvature="0"
           id="path6344-5"
           d="m 88.666667,226.99999 221.000003,0"
           style="fill:none;fill-rule:evenodd;stroke:#000000;stroke-width:0.97147942px;stroke-linecap:butt;stroke-linejoin:miter;stroke-opacity:1" />
        <path
           style="fill:none;fill-rule:evenodd;stroke:#000000;stroke-width:0.97147942px;stroke-linecap:butt;stroke-linejoin:miter;stroke-opacity:1"
           d="m 88.666667,206.99999 221.000003,0"
           id="path6346-3"
           inkscape:connector-curvature="0" />
        <path
           style="fill:none;fill-rule:evenodd;stroke:#000000;stroke-width:0.97147942px;stroke-linecap:butt;stroke-linejoin:miter;stroke-opacity:1"
           d="m 88.666667,186.99999 221.000003,0"
           id="path6348-7"
           inkscape:connector-curvature="0" />
        <path
           inkscape:connector-curvature="0"
           id="path6350-9"
           d="m 88.666667,166.99999 221.000003,0"
           style="fill:none;fill-rule:evenodd;stroke:#000000;stroke-width:0.97147942px;stroke-linecap:butt;stroke-linejoin:miter;stroke-opacity:1" />
        <path
           inkscape:connector-curvature="0"
           id="path6352-2"
           d="m 88.666667,146.99999 221.000003,0"
           style="fill:none;fill-rule:evenodd;stroke:#000000;stroke-width:0.97147942px;stroke-linecap:butt;stroke-linejoin:miter;stroke-opacity:1" />
        <path
           style="fill:none;fill-rule:evenodd;stroke:#000000;stroke-width:0.97147942px;stroke-linecap:butt;stroke-linejoin:miter;stroke-opacity:1"
           d="m 88.666667,126.99999 221.000003,0"
           id="path6354-1"
           inkscape:connector-curvature="0" />
        <path
           style="fill:none;fill-rule:evenodd;stroke:#000000;stroke-width:0.97147942px;stroke-linecap:butt;stroke-linejoin:miter;stroke-opacity:1"
           d="m 88.666667,106.99999 221.000003,0"
           id="path6356-0"
           inkscape:connector-curvature="0" />
        <path
           inkscape:connector-curvature="0"
           id="path6358-6"
           d="m 88.666667,86.99999 221.000003,0"
           style="fill:none;fill-rule:evenodd;stroke:#000000;stroke-width:0.97147942px;stroke-linecap:butt;stroke-linejoin:miter;stroke-opacity:1" />
      </g>
    </pattern>
  </defs>
  <sodipodi:namedview
     id="base"
     pagecolor="#ffffff"
     bordercolor="#666666"
     borderopacity="1.0"
     inkscape:pageopacity="0.0"
     inkscape:pageshadow="2"
     inkscape:zoom="1.2"
     inkscape:cx="465.43266"
     inkscape:cy="274.69184"
     inkscape:current-layer="svg4136"
     inkscape:document-units="px"
     showgrid="false"
     inkscape:snap-bbox="true"
     inkscape:bbox-paths="true"
     inkscape:snap-bbox-edge-midpoints="true"
     inkscape:bbox-nodes="true"
     inkscape:snap-bbox-midpoints="true"
     inkscape:object-paths="true"
     inkscape:snap-intersection-paths="true"
     inkscape:object-nodes="true"
     inkscape:snap-smooth-nodes="true"
     inkscape:snap-midpoints="true"
     inkscape:snap-page="true"
     inkscape:snap-object-midpoints="true"
     inkscape:snap-center="true"
     inkscape:snap-text-baseline="true"
     inkscape:window-width="1858"
     inkscape:window-height="1177"
     inkscape:window-x="54"
     inkscape:window-y="-8"
     inkscape:window-maximized="1" />
  <metadata
     id="metadata4141">
    <rdf:RDF>
      <cc:Work
         rdf:about="">
        <dc:format>image/svg+xml</dc:format>
        <dc:type
           rdf:resource="http://purl.org/dc/dcmitype/StillImage" />
        <dc:title></dc:title>
      </cc:Work>
    </rdf:RDF>
  </metadata>
  <g
     id="layer1"
     inkscape:label="Layer 1"
     inkscape:groupmode="layer"
     sodipodi:insensitive="true">
    <rect
       style="opacity:1;fill:#e5d9ce;fill-opacity:1;fill-rule:nonzero;stroke:none;stroke-width:5;stroke-linejoin:miter;stroke-miterlimit:4;stroke-dasharray:none;stroke-opacity:1"
       id="rect4686"
       width="800"
       height="600"
       x="0"
       y="0"
       sodipodi:insensitive="true" />
    <rect
       style="opacity:0.26199999;fill:url(#pattern6454);fill-opacity:1;stroke:none"
       width="800"
       height="600"
       x="0"
       y="0"
       id="rect6481"
       sodipodi:insensitive="true" />
  </g>
  <rect
     style="opacity:0.483;fill:#ffffff;fill-opacity:1;fill-rule:nonzero;stroke:none;stroke-width:4.50141335;stroke-linejoin:miter;stroke-miterlimit:4;stroke-dasharray:none;stroke-opacity:1"
     id="rect5742"
     width="800"
     height="185.15625"
     x="0"
     y="414.84375" />
  <flowRoot
     xml:space="preserve"
     id="flowRoot6513"
     style="font-style:normal;font-weight:normal;line-height:0.01%;font-family:sans-serif;text-align:center;letter-spacing:0px;word-spacing:0px;text-anchor:middle;fill:#000000;fill-opacity:1;stroke:none;stroke-width:1px;stroke-linecap:butt;stroke-linejoin:miter;stroke-opacity:1;"><flowRegion
       id="flowRegion6515"
       style="font-family:sans-serif;fill:#000000;"><rect
         id="rect6517"
         width="800"
         height="166.66667"
         x="0"
         y="433.33334"
         style="font-family:sans-serif;fill:#000000;" /></flowRegion><flowPara
       id="flowPara6519"
       style="font-style:normal;font-variant:normal;font-weight:normal;font-stretch:normal;font-size:27.5px;line-height:1.25;font-family:Calibri;-inkscape-font-specification:Calibri;fill:#000000;" /><flowPara
       style="font-style:normal;font-variant:normal;font-weight:normal;font-stretch:normal;font-size:27.5px;line-height:1.25;font-family:Calibri;-inkscape-font-specification:Calibri;fill:#000000;"
       id="flowPara5726">1, 2, 3, ...</flowPara><flowPara
       style="font-style:normal;font-variant:normal;font-weight:normal;font-stretch:normal;font-size:27.5px;line-height:1.25;font-family:Calibri;-inkscape-font-specification:Calibri;fill:#000000;"
       id="flowPara5728">Numbers</flowPara></flowRoot>  <path
     style="fill:#800000;fill-rule:evenodd;stroke:#800000;stroke-width:5;stroke-linecap:butt;stroke-linejoin:miter;stroke-miterlimit:4;stroke-dasharray:none;stroke-opacity:1"
     d="M 289.95217,307.07107 V 287.62563"
     id="path6521"
     inkscape:connector-curvature="0" />
  <path
     inkscape:connector-curvature="0"
     id="path6523"
     d="M 411.33883,307.07107 V 248.1455"
     style="fill:#aa4400;fill-rule:evenodd;stroke:#aa4400;stroke-width:5;stroke-linecap:butt;stroke-linejoin:miter;stroke-miterlimit:4;stroke-dasharray:none;stroke-opacity:1" />
  <path
     style="fill:#806600;fill-rule:evenodd;stroke:#806600;stroke-width:5;stroke-linecap:butt;stroke-linejoin:miter;stroke-miterlimit:4;stroke-dasharray:none;stroke-opacity:1"
     d="M 530.95773,307.07107 V 188.1455"
     id="path6529"
     inkscape:connector-curvature="0"
     sodipodi:nodetypes="cc" />
  <text
     xml:space="preserve"
     style="font-style:normal;font-weight:normal;line-height:0%;font-family:sans-serif;text-align:center;letter-spacing:0px;word-spacing:0px;text-anchor:middle;fill:#800000;fill-opacity:1;stroke:#800000;stroke-width:1px;stroke-linecap:butt;stroke-linejoin:miter;stroke-opacity:1"
     x="288.73529"
     y="346.03082"
     id="text6531"><tspan
       sodipodi:role="line"
       id="tspan6533"
       x="288.73529"
       y="346.03082"
       style="font-style:normal;font-variant:normal;font-weight:normal;font-stretch:normal;font-size:25px;line-height:1.25;font-family:Calibri;-inkscape-font-specification:Calibri;fill:#800000;stroke:#800000">1</tspan></text>
  <text
     id="text6535"
     y="346.03082"
     x="410.12195"
     style="font-style:normal;font-weight:normal;line-height:0%;font-family:sans-serif;text-align:center;letter-spacing:0px;word-spacing:0px;text-anchor:middle;fill:#aa4400;fill-opacity:1;stroke:#aa4400;stroke-width:1px;stroke-linecap:butt;stroke-linejoin:miter;stroke-opacity:1"
     xml:space="preserve"><tspan
       style="font-style:normal;font-variant:normal;font-weight:normal;font-stretch:normal;font-size:25px;line-height:1.25;font-family:Calibri;-inkscape-font-specification:Calibri;fill:#aa4400;stroke:#aa4400"
       y="346.03082"
       x="410.12195"
       id="tspan6537"
       sodipodi:role="line">3</tspan></text>
  <text
     xml:space="preserve"
     style="font-style:normal;font-weight:normal;line-height:0%;font-family:sans-serif;text-align:center;letter-spacing:0px;word-spacing:0px;text-anchor:middle;fill:#806600;fill-opacity:1;stroke:#806600;stroke-width:1px;stroke-linecap:butt;stroke-linejoin:miter;stroke-opacity:1"
     x="530.91937"
     y="346.03082"
     id="text6539"><tspan
       sodipodi:role="line"
       x="530.91937"
       y="346.03082"
       style="font-style:normal;font-variant:normal;font-weight:normal;font-stretch:normal;font-size:25px;line-height:1.25;font-family:Calibri;-inkscape-font-specification:Calibri;fill:#806600;stroke:#806600"
       id="tspan6543">6</tspan></text>
  <path
     inkscape:connector-curvature="0"
     id="path5730"
     d="M 349.7178,308.24295 V 256.92251"
     style="fill:#445500;fill-rule:evenodd;stroke:#445500;stroke-width:5;stroke-linecap:butt;stroke-linejoin:miter;stroke-miterlimit:4;stroke-dasharray:none;stroke-opacity:1"
     sodipodi:nodetypes="cc" />
  <text
     id="text5734"
     y="347.2027"
     x="348.50092"
     style="font-style:normal;font-weight:normal;line-height:0%;font-family:sans-serif;text-align:center;letter-spacing:0px;word-spacing:0px;text-anchor:middle;fill:#445500;fill-opacity:1;stroke:#445500;stroke-width:1px;stroke-linecap:butt;stroke-linejoin:miter;stroke-opacity:1;"
     xml:space="preserve"><tspan
       style="font-style:normal;font-variant:normal;font-weight:normal;font-stretch:normal;font-size:25px;line-height:1.25;font-family:Calibri;-inkscape-font-specification:Calibri;fill:#445500;stroke:#445500;"
       y="347.2027"
       x="348.50092"
       id="tspan5732"
       sodipodi:role="line">2.5</tspan></text>
  <path
     sodipodi:nodetypes="cc"
     style="fill:#445500;fill-rule:evenodd;stroke:#445500;stroke-width:5;stroke-linecap:butt;stroke-linejoin:miter;stroke-miterlimit:4;stroke-dasharray:none;stroke-opacity:1"
     d="M 470.0303,308.24295 V 211.92251"
     id="path5736"
     inkscape:connector-curvature="0" />
  <text
     xml:space="preserve"
     style="font-style:normal;font-weight:normal;line-height:0%;font-family:sans-serif;text-align:center;letter-spacing:0px;word-spacing:0px;text-anchor:middle;fill:#445500;fill-opacity:1;stroke:#445500;stroke-width:1px;stroke-linecap:butt;stroke-linejoin:miter;stroke-opacity:1"
     x="468.81342"
     y="347.2027"
     id="text5740"><tspan
       sodipodi:role="line"
       id="tspan5738"
       x="468.81342"
       y="347.2027"
       style="font-style:normal;font-variant:normal;font-weight:normal;font-stretch:normal;font-size:25px;line-height:1.25;font-family:Calibri;-inkscape-font-specification:Calibri;fill:#445500;stroke:#445500">4.75</tspan></text>
  <g
     aria-label="
1, 2, 3, ...
Numbers"
     style="font-style:normal;font-weight:normal;line-height:0.01%;font-family:sans-serif;text-align:center;letter-spacing:0px;word-spacing:0px;text-anchor:middle;fill:#000000;fill-opacity:1;stroke:none;stroke-width:1px;stroke-linecap:butt;stroke-linejoin:miter;stroke-opacity:1"
     id="flowRoot3745">
    <path
       d="m 361.44897,456.48459 q 0,0.25513 -0.0403,0.42969 -0.0403,0.17456 -0.10742,0.28198 -0.0671,0.10742 -0.16113,0.16113 -0.0806,0.0403 -0.17456,0.0403 h -9.07715 q -0.094,0 -0.17456,-0.0403 -0.0806,-0.0537 -0.16114,-0.16113 -0.0671,-0.10742 -0.10742,-0.28198 -0.0403,-0.17456 -0.0403,-0.42969 0,-0.2417 0.0403,-0.41626 0.0403,-0.17456 0.094,-0.28198 0.0671,-0.12085 0.1477,-0.17456 0.094,-0.0671 0.20142,-0.0671 h 3.62549 v -13.21289 l -3.35694,2.00073 q -0.25512,0.13428 -0.41626,0.16113 -0.1477,0.0269 -0.2417,-0.0537 -0.094,-0.094 -0.13427,-0.29541 -0.0269,-0.20142 -0.0269,-0.51025 0,-0.22827 0.0134,-0.38941 0.0269,-0.16113 0.0671,-0.26855 0.0403,-0.10742 0.10742,-0.18799 0.0806,-0.0806 0.20141,-0.16113 l 4.00147,-2.5647 q 0.0537,-0.0403 0.13428,-0.0671 0.0806,-0.0269 0.20141,-0.0537 0.12085,-0.0269 0.28199,-0.0269 0.16113,-0.0134 0.40283,-0.0134 0.32226,0 0.53711,0.0268 0.21484,0.0269 0.33569,0.0806 0.12085,0.0403 0.16113,0.12085 0.0403,0.0671 0.0403,0.1477 v 15.26734 h 3.14209 q 0.10742,0 0.20141,0.0671 0.094,0.0537 0.14771,0.17456 0.0671,0.10742 0.094,0.28198 0.0403,0.17456 0.0403,0.41626 z"
       style="font-style:normal;font-variant:normal;font-weight:normal;font-stretch:normal;font-size:27.5px;line-height:1.25;font-family:Calibri;-inkscape-font-specification:Calibri;fill:#000000"
       id="path3747" />
    <path
       d="m 367.948,455.47751 q 0,0.41626 -0.0403,0.76538 -0.0403,0.34912 -0.13427,0.65796 -0.094,0.30884 -0.25513,0.60425 -0.1477,0.30883 -0.37598,0.64453 l -1.8396,2.76611 q -0.0671,0.094 -0.16113,0.16113 -0.0806,0.0671 -0.21484,0.12085 -0.12085,0.0537 -0.29541,0.0671 -0.16114,0.0269 -0.41626,0.0269 -0.22827,0 -0.38941,-0.0269 -0.1477,-0.0134 -0.21484,-0.0671 -0.0671,-0.0403 -0.0806,-0.12085 0,-0.0806 0.0537,-0.18798 l 1.78589,-3.69263 v -1.71875 q 0,-0.36255 0.0671,-0.57739 0.0806,-0.21485 0.2417,-0.32227 0.16113,-0.10742 0.40283,-0.1477 0.2417,-0.0403 0.59082,-0.0403 0.3357,0 0.5774,0.0403 0.2417,0.0403 0.3894,0.1477 0.16113,0.10742 0.22827,0.32227 0.0806,0.21484 0.0806,0.57739 z"
       style="font-style:normal;font-variant:normal;font-weight:normal;font-stretch:normal;font-size:27.5px;line-height:1.25;font-family:Calibri;-inkscape-font-specification:Calibri;fill:#000000"
       id="path3749" />
    <path
       d="m 388.479,456.40402 q 0,0.2417 -0.0403,0.42969 -0.0268,0.18799 -0.094,0.32227 -0.0537,0.12084 -0.16114,0.18798 -0.094,0.0537 -0.21484,0.0537 h -9.60083 q -0.18799,0 -0.33569,-0.0403 -0.13428,-0.0537 -0.2417,-0.16113 -0.094,-0.10742 -0.14771,-0.30884 -0.0403,-0.20142 -0.0403,-0.49683 0,-0.26855 0.0134,-0.46997 0.0268,-0.20141 0.094,-0.34912 0.0671,-0.16113 0.16113,-0.30884 0.10743,-0.16113 0.26856,-0.33569 l 3.37036,-3.57178 q 1.16821,-1.23535 1.86645,-2.21557 0.71167,-0.98023 1.08765,-1.78589 0.38941,-0.80566 0.51026,-1.46362 0.12084,-0.65796 0.12084,-1.23536 0,-0.57739 -0.18798,-1.08764 -0.18799,-0.52368 -0.55054,-0.91309 -0.34912,-0.3894 -0.88623,-0.61767 -0.53711,-0.22828 -1.23535,-0.22828 -0.81909,0 -1.47705,0.22828 -0.64453,0.22827 -1.14136,0.49682 -0.4834,0.26856 -0.81909,0.49683 -0.32227,0.22827 -0.4834,0.22827 -0.094,0 -0.17456,-0.0537 -0.0671,-0.0537 -0.12085,-0.17456 -0.0403,-0.12085 -0.0671,-0.32227 -0.0269,-0.20141 -0.0269,-0.4834 0,-0.20141 0.0134,-0.34912 0.0134,-0.1477 0.0403,-0.25512 0.0403,-0.10743 0.094,-0.20142 0.0537,-0.094 0.21484,-0.22827 0.16114,-0.14771 0.55054,-0.38941 0.40283,-0.24169 0.99365,-0.46997 0.60425,-0.2417 1.31592,-0.40283 0.7251,-0.16113 1.51733,-0.16113 1.26221,0 2.20215,0.36255 0.95337,0.34912 1.57105,0.9668 0.6311,0.61767 0.93994,1.43676 0.30884,0.81909 0.30884,1.74561 0,0.83252 -0.14771,1.66504 -0.1477,0.81909 -0.6311,1.78589 -0.46997,0.95336 -1.36963,2.13501 -0.89966,1.16821 -2.39014,2.69897 l -2.75268,2.87354 h 7.55981 q 0.10742,0 0.20142,0.0671 0.10742,0.0537 0.17456,0.17456 0.0806,0.12085 0.10742,0.30884 0.0403,0.17456 0.0403,0.41626 z"
       style="font-style:normal;font-variant:normal;font-weight:normal;font-stretch:normal;font-size:27.5px;line-height:1.25;font-family:Calibri;-inkscape-font-specification:Calibri;fill:#000000"
       id="path3751" />
    <path
       d="m 395.01831,455.47751 q 0,0.41626 -0.0403,0.76538 -0.0403,0.34912 -0.13428,0.65796 -0.094,0.30884 -0.25513,0.60425 -0.1477,0.30883 -0.37597,0.64453 l -1.8396,2.76611 q -0.0671,0.094 -0.16114,0.16113 -0.0806,0.0671 -0.21484,0.12085 -0.12085,0.0537 -0.29541,0.0671 -0.16113,0.0269 -0.41626,0.0269 -0.22827,0 -0.3894,-0.0269 -0.14771,-0.0134 -0.21485,-0.0671 -0.0671,-0.0403 -0.0806,-0.12085 0,-0.0806 0.0537,-0.18798 l 1.78589,-3.69263 v -1.71875 q 0,-0.36255 0.0671,-0.57739 0.0806,-0.21485 0.2417,-0.32227 0.16114,-0.10742 0.40284,-0.1477 0.24169,-0.0403 0.59082,-0.0403 0.33569,0 0.57739,0.0403 0.2417,0.0403 0.3894,0.1477 0.16114,0.10742 0.22827,0.32227 0.0806,0.21484 0.0806,0.57739 z"
       style="font-style:normal;font-variant:normal;font-weight:normal;font-stretch:normal;font-size:27.5px;line-height:1.25;font-family:Calibri;-inkscape-font-specification:Calibri;fill:#000000"
       id="path3753" />
    <path
       d="m 415.41504,452.42941 q 0,1.19507 -0.41626,2.16187 -0.41626,0.95337 -1.19507,1.63818 -0.77881,0.68482 -1.92017,1.06079 -1.14135,0.36255 -2.57812,0.36255 -0.8728,0 -1.63818,-0.1477 -0.75196,-0.13428 -1.34278,-0.32227 -0.59082,-0.20142 -0.98022,-0.40283 -0.38941,-0.21484 -0.49683,-0.30884 -0.094,-0.094 -0.1477,-0.18799 -0.0537,-0.094 -0.094,-0.22827 -0.0403,-0.13428 -0.0671,-0.32226 -0.0134,-0.20142 -0.0134,-0.4834 0,-0.4834 0.094,-0.67139 0.094,-0.18799 0.26856,-0.18799 0.12084,0 0.46997,0.21485 0.36254,0.21484 0.91308,0.46997 0.56397,0.2417 1.30249,0.45654 0.75196,0.21484 1.66504,0.21484 0.88623,0 1.55762,-0.22827 0.67139,-0.22827 1.12793,-0.64453 0.45654,-0.41626 0.68481,-0.98022 0.22827,-0.5774 0.22827,-1.24878 0,-0.73853 -0.29541,-1.32935 -0.28198,-0.59082 -0.84594,-1.02051 -0.55054,-0.42968 -1.36963,-0.65796 -0.80567,-0.22827 -1.8396,-0.22827 h -1.65161 q -0.10743,0 -0.21485,-0.0403 -0.094,-0.0537 -0.17456,-0.16113 -0.0671,-0.10743 -0.12085,-0.28199 -0.0403,-0.17456 -0.0403,-0.45654 0,-0.25513 0.0403,-0.41626 0.0403,-0.17456 0.10742,-0.26855 0.0806,-0.10743 0.17457,-0.14771 0.094,-0.0537 0.21484,-0.0537 h 1.51733 q 0.88623,0 1.58448,-0.22827 0.71167,-0.22827 1.19506,-0.65796 0.49683,-0.42969 0.75196,-1.02051 0.26855,-0.60425 0.26855,-1.34277 0,-0.53711 -0.17456,-1.02051 -0.17456,-0.49682 -0.52368,-0.85937 -0.34912,-0.36255 -0.89966,-0.56397 -0.53711,-0.21484 -1.24878,-0.21484 -0.77881,0 -1.43677,0.2417 -0.64453,0.22827 -1.15478,0.49682 -0.51025,0.26856 -0.84595,0.51026 -0.33569,0.22827 -0.46997,0.22827 -0.094,0 -0.17456,-0.0269 -0.0671,-0.0403 -0.12085,-0.13427 -0.0403,-0.10743 -0.0671,-0.28199 -0.0134,-0.18799 -0.0134,-0.4834 0,-0.20141 0.0134,-0.34912 0.0134,-0.16113 0.0537,-0.26855 0.0403,-0.12085 0.094,-0.21484 0.0537,-0.094 0.17456,-0.21485 0.13428,-0.13428 0.52368,-0.37598 0.3894,-0.24169 0.95337,-0.46997 0.57739,-0.2417 1.31592,-0.40283 0.75195,-0.16113 1.61133,-0.16113 1.20849,0 2.12158,0.30884 0.91308,0.30884 1.51733,0.8728 0.61768,0.56396 0.91309,1.3562 0.30883,0.77881 0.30883,1.73218 0,0.81909 -0.21484,1.53076 -0.21484,0.69824 -0.6311,1.24878 -0.41626,0.53711 -1.02051,0.92651 -0.60425,0.37598 -1.39648,0.52369 v 0.0269 q 0.89965,0.094 1.63818,0.45654 0.75195,0.34912 1.28906,0.88623 0.53711,0.53711 0.83252,1.26221 0.30884,0.71167 0.30884,1.53076 z"
       style="font-style:normal;font-variant:normal;font-weight:normal;font-stretch:normal;font-size:27.5px;line-height:1.25;font-family:Calibri;-inkscape-font-specification:Calibri;fill:#000000"
       id="path3755" />
    <path
       d="m 422.08862,455.47751 q 0,0.41626 -0.0403,0.76538 -0.0403,0.34912 -0.13428,0.65796 -0.094,0.30884 -0.25512,0.60425 -0.14771,0.30883 -0.37598,0.64453 l -1.8396,2.76611 q -0.0671,0.094 -0.16113,0.16113 -0.0806,0.0671 -0.21485,0.12085 -0.12085,0.0537 -0.29541,0.0671 -0.16113,0.0269 -0.41626,0.0269 -0.22827,0 -0.3894,-0.0269 -0.14771,-0.0134 -0.21485,-0.0671 -0.0671,-0.0403 -0.0806,-0.12085 0,-0.0806 0.0537,-0.18798 l 1.78589,-3.69263 v -1.71875 q 0,-0.36255 0.0671,-0.57739 0.0806,-0.21485 0.2417,-0.32227 0.16113,-0.10742 0.40283,-0.1477 0.2417,-0.0403 0.59082,-0.0403 0.33569,0 0.57739,0.0403 0.2417,0.0403 0.38941,0.1477 0.16113,0.10742 0.22827,0.32227 0.0806,0.21484 0.0806,0.57739 z"
       style="font-style:normal;font-variant:normal;font-weight:normal;font-stretch:normal;font-size:27.5px;line-height:1.25;font-family:Calibri;-inkscape-font-specification:Calibri;fill:#000000"
       id="path3757" />
    <path
       d="m 435.12695,455.93405 q 0,0.95337 -0.32226,1.27564 -0.30884,0.30883 -1.14136,0.30883 -0.80566,0 -1.1145,-0.30883 -0.30884,-0.30884 -0.30884,-1.23536 0,-0.95336 0.30884,-1.2622 0.32226,-0.32227 1.15478,-0.32227 0.80567,0 1.11451,0.30884 0.30883,0.30884 0.30883,1.23535 z"
       style="font-style:normal;font-variant:normal;font-weight:normal;font-stretch:normal;font-size:27.5px;line-height:1.25;font-family:Calibri;-inkscape-font-specification:Calibri;fill:#000000"
       id="path3759" />
    <path
       d="m 442.05566,455.93405 q 0,0.95337 -0.32226,1.27564 -0.30884,0.30883 -1.14136,0.30883 -0.80566,0 -1.1145,-0.30883 -0.30884,-0.30884 -0.30884,-1.23536 0,-0.95336 0.30884,-1.2622 0.32226,-0.32227 1.15478,-0.32227 0.80567,0 1.11451,0.30884 0.30883,0.30884 0.30883,1.23535 z"
       style="font-style:normal;font-variant:normal;font-weight:normal;font-stretch:normal;font-size:27.5px;line-height:1.25;font-family:Calibri;-inkscape-font-specification:Calibri;fill:#000000"
       id="path3761" />
    <path
       d="m 448.98437,455.93405 q 0,0.95337 -0.32226,1.27564 -0.30884,0.30883 -1.14136,0.30883 -0.80566,0 -1.1145,-0.30883 -0.30884,-0.30884 -0.30884,-1.23536 0,-0.95336 0.30884,-1.2622 0.32227,-0.32227 1.15479,-0.32227 0.80566,0 1.1145,0.30884 0.30883,0.30884 0.30883,1.23535 z"
       style="font-style:normal;font-variant:normal;font-weight:normal;font-stretch:normal;font-size:27.5px;line-height:1.25;font-family:Calibri;-inkscape-font-specification:Calibri;fill:#000000"
       id="path3763" />
    <path
       d="m 364.33594,490.81931 q 0,0.26855 -0.094,0.45654 -0.0806,0.18799 -0.22827,0.30884 -0.13428,0.12085 -0.30884,0.17456 -0.17456,0.0537 -0.34912,0.0537 h -0.73852 q -0.34912,0 -0.61768,-0.0671 -0.25513,-0.0806 -0.49682,-0.26856 -0.22828,-0.20141 -0.46998,-0.5371 -0.22827,-0.3357 -0.51025,-0.85938 l -5.47851,-9.88281 q -0.42969,-0.76538 -0.87281,-1.5979 -0.42968,-0.84595 -0.80566,-1.63819 h -0.0269 q 0.0269,0.9668 0.0403,1.97388 0.0134,1.00708 0.0134,2.00073 v 10.48706 q 0,0.094 -0.0537,0.18799 -0.0537,0.0806 -0.18799,0.13428 -0.12084,0.0403 -0.33569,0.0671 -0.20141,0.0403 -0.52368,0.0403 -0.32227,0 -0.53711,-0.0403 -0.20142,-0.0269 -0.32227,-0.0671 -0.12084,-0.0537 -0.17456,-0.13428 -0.0537,-0.094 -0.0537,-0.18799 v -16.03271 q 0,-0.53711 0.29541,-0.76538 0.29541,-0.22827 0.64453,-0.22827 h 1.10108 q 0.3894,0 0.64453,0.0671 0.26855,0.0671 0.46997,0.22828 0.21484,0.1477 0.40283,0.42968 0.20142,0.26856 0.42969,0.68482 l 4.21631,7.62695 q 0.3894,0.69824 0.75195,1.36963 0.36255,0.65796 0.69824,1.30249 0.3357,0.64453 0.65796,1.27564 0.3357,0.61767 0.65796,1.24877 h 0.0134 q -0.0269,-1.06079 -0.0403,-2.20214 0,-1.15479 0,-2.21558 v -9.42627 q 0,-0.094 0.0537,-0.17456 0.0537,-0.0806 0.17456,-0.13428 0.13428,-0.0671 0.33569,-0.094 0.21485,-0.0269 0.55054,-0.0269 0.29541,0 0.51025,0.0269 0.21485,0.0269 0.3357,0.094 0.12085,0.0537 0.17456,0.13428 0.0537,0.0806 0.0537,0.17456 z"
       style="font-style:normal;font-variant:normal;font-weight:normal;font-stretch:normal;font-size:27.5px;line-height:1.25;font-family:Calibri;-inkscape-font-specification:Calibri;fill:#000000"
       id="path3765" />
    <path
       d="m 379.07959,491.43698 q 0,0.10742 -0.0537,0.18799 -0.0403,0.0671 -0.16113,0.12085 -0.12085,0.0537 -0.32227,0.0806 -0.18799,0.0269 -0.46997,0.0269 -0.30884,0 -0.51025,-0.0269 -0.18799,-0.0269 -0.30884,-0.0806 -0.10742,-0.0537 -0.14771,-0.12085 -0.0403,-0.0806 -0.0403,-0.18799 v -1.5979 q -1.03394,1.14136 -2.04102,1.66504 -1.00708,0.52368 -2.04101,0.52368 -1.2085,0 -2.04102,-0.40283 -0.81909,-0.40283 -1.32934,-1.08765 -0.51026,-0.69824 -0.73853,-1.61133 -0.21484,-0.92651 -0.21484,-2.24243 v -7.33154 q 0,-0.10742 0.0403,-0.17456 0.0537,-0.0806 0.18799,-0.13428 0.13428,-0.0671 0.34912,-0.0806 0.21484,-0.0269 0.53711,-0.0269 0.32227,0 0.53711,0.0269 0.21484,0.0134 0.33569,0.0806 0.13428,0.0537 0.18799,0.13428 0.0537,0.0671 0.0537,0.17456 v 7.03613 q 0,1.06079 0.14771,1.70533 0.16113,0.6311 0.46997,1.08764 0.32226,0.44312 0.80566,0.69824 0.4834,0.2417 1.12793,0.2417 0.83252,0 1.65161,-0.59082 0.83252,-0.59082 1.75904,-1.73217 v -8.44605 q 0,-0.10742 0.0403,-0.17456 0.0537,-0.0806 0.18799,-0.13428 0.13427,-0.0671 0.33569,-0.0806 0.21484,-0.0269 0.55054,-0.0269 0.32226,0 0.53711,0.0269 0.21484,0.0134 0.33569,0.0806 0.12085,0.0537 0.17456,0.13428 0.0671,0.0671 0.0671,0.17456 z"
       style="font-style:normal;font-variant:normal;font-weight:normal;font-stretch:normal;font-size:27.5px;line-height:1.25;font-family:Calibri;-inkscape-font-specification:Calibri;fill:#000000"
       id="path3767" />
    <path
       d="m 401.10107,491.43698 q 0,0.10742 -0.0537,0.18799 -0.0537,0.0671 -0.17456,0.12085 -0.12085,0.0537 -0.33569,0.0806 -0.21484,0.0269 -0.53711,0.0269 -0.33569,0 -0.55054,-0.0269 -0.21484,-0.0269 -0.34912,-0.0806 -0.12085,-0.0537 -0.17456,-0.12085 -0.0537,-0.0806 -0.0537,-0.18799 v -7.34497 q 0,-0.76538 -0.13428,-1.39648 -0.13427,-0.63111 -0.42968,-1.08765 -0.29541,-0.45654 -0.75196,-0.69824 -0.45654,-0.2417 -1.07422,-0.2417 -0.76538,0 -1.54419,0.59082 -0.76538,0.59082 -1.69189,1.73218 v 8.44604 q 0,0.10742 -0.0537,0.18799 -0.0537,0.0671 -0.18799,0.12085 -0.12085,0.0537 -0.33569,0.0806 -0.21485,0.0269 -0.53711,0.0269 -0.30884,0 -0.53711,-0.0269 -0.21485,-0.0269 -0.34912,-0.0806 -0.12085,-0.0537 -0.17456,-0.12085 -0.0403,-0.0806 -0.0403,-0.18799 v -7.34497 q 0,-0.76538 -0.1477,-1.39648 -0.14771,-0.63111 -0.44312,-1.08765 -0.29541,-0.45654 -0.75195,-0.69824 -0.44312,-0.2417 -1.06079,-0.2417 -0.76538,0 -1.54419,0.59082 -0.77881,0.59082 -1.6919,1.73218 v 8.44604 q 0,0.10742 -0.0537,0.18799 -0.0537,0.0671 -0.17456,0.12085 -0.12085,0.0537 -0.33569,0.0806 -0.21484,0.0269 -0.55054,0.0269 -0.32226,0 -0.53711,-0.0269 -0.21484,-0.0269 -0.34912,-0.0806 -0.12085,-0.0537 -0.17456,-0.12085 -0.0403,-0.0806 -0.0403,-0.18799 v -12.08496 q 0,-0.10742 0.0403,-0.17456 0.0403,-0.0806 0.16113,-0.13428 0.12085,-0.0671 0.30884,-0.0806 0.18799,-0.0269 0.49683,-0.0269 0.29541,0 0.4834,0.0269 0.20141,0.0134 0.30884,0.0806 0.10742,0.0537 0.1477,0.13428 0.0537,0.0671 0.0537,0.17456 v 1.5979 q 1.02051,-1.14136 1.97388,-1.66504 0.9668,-0.53711 1.94702,-0.53711 0.75195,0 1.34277,0.17456 0.60425,0.17456 1.06079,0.49683 0.45655,0.30884 0.77881,0.75195 0.32227,0.42969 0.53711,0.9668 0.60425,-0.65796 1.14136,-1.1145 0.55054,-0.45655 1.04736,-0.73853 0.51026,-0.28198 0.98023,-0.40283 0.4834,-0.13428 0.96679,-0.13428 1.16822,0 1.96045,0.41626 0.79224,0.40283 1.27564,1.08765 0.49682,0.68481 0.69824,1.61133 0.21484,0.91308 0.21484,1.93359 z"
       style="font-style:normal;font-variant:normal;font-weight:normal;font-stretch:normal;font-size:27.5px;line-height:1.25;font-family:Calibri;-inkscape-font-specification:Calibri;fill:#000000"
       id="path3769" />
    <path
       d="m 416.26099,485.23337 q 0,1.57104 -0.34912,2.83325 -0.3357,1.24878 -1.00708,2.13501 -0.65796,0.88623 -1.62476,1.3562 -0.9668,0.46997 -2.21558,0.46997 -0.57739,0 -1.07422,-0.12085 -0.48339,-0.10742 -0.95336,-0.36255 -0.46998,-0.25512 -0.93995,-0.64453 -0.46997,-0.3894 -0.99365,-0.93994 v 1.47705 q 0,0.10742 -0.0537,0.18799 -0.0537,0.0806 -0.17456,0.13428 -0.12085,0.0403 -0.30884,0.0671 -0.17456,0.0269 -0.45654,0.0269 -0.26856,0 -0.45654,-0.0269 -0.18799,-0.0269 -0.30884,-0.0671 -0.12085,-0.0537 -0.16113,-0.13428 -0.0403,-0.0806 -0.0403,-0.18799 v -17.93945 q 0,-0.10742 0.0403,-0.18799 0.0537,-0.0806 0.17456,-0.13428 0.13427,-0.0537 0.34912,-0.0806 0.21484,-0.0269 0.53711,-0.0269 0.33569,0 0.55053,0.0269 0.21485,0.0269 0.3357,0.0806 0.12085,0.0537 0.17456,0.13428 0.0537,0.0806 0.0537,0.18799 v 7.23755 q 0.53711,-0.55054 1.03393,-0.92652 0.51026,-0.37597 0.99366,-0.60424 0.48339,-0.2417 0.96679,-0.34913 0.4834,-0.10742 1.02051,-0.10742 1.31592,0 2.24243,0.52368 0.93994,0.52369 1.51734,1.40992 0.59082,0.8728 0.85937,2.05444 0.26856,1.18164 0.26856,2.49756 z m -2.33643,0.25512 q 0,-0.92651 -0.1477,-1.79931 -0.13428,-0.8728 -0.4834,-1.54419 -0.34912,-0.67139 -0.92652,-1.07422 -0.57739,-0.41626 -1.43676,-0.41626 -0.42969,0 -0.84595,0.12085 -0.41626,0.12085 -0.84595,0.40283 -0.42969,0.28198 -0.89966,0.7251 -0.45654,0.44312 -0.98022,1.1145 v 4.82056 q 0.91308,1.1145 1.7456,1.70532 0.83252,0.57739 1.73218,0.57739 0.83252,0 1.42334,-0.40283 0.59082,-0.40283 0.95337,-1.06079 0.37598,-0.67139 0.53711,-1.49048 0.17456,-0.83252 0.17456,-1.67847 z"
       style="font-style:normal;font-variant:normal;font-weight:normal;font-stretch:normal;font-size:27.5px;line-height:1.25;font-family:Calibri;-inkscape-font-specification:Calibri;fill:#000000"
       id="path3771" />
    <path
       d="m 429.90356,484.87082 q 0,0.52368 -0.26855,0.75195 -0.25513,0.21485 -0.59082,0.21485 h -7.92236 q 0,1.00708 0.20141,1.81274 0.20142,0.80566 0.67139,1.38306 0.46997,0.57739 1.22192,0.88623 0.75196,0.30884 1.8396,0.30884 0.85938,0 1.53076,-0.13428 0.67139,-0.14771 1.15479,-0.32227 0.49683,-0.17456 0.80566,-0.30884 0.32227,-0.1477 0.4834,-0.1477 0.094,0 0.16113,0.0537 0.0806,0.0403 0.12085,0.13428 0.0403,0.094 0.0537,0.26855 0.0268,0.16113 0.0268,0.40283 0,0.17456 -0.0134,0.30884 -0.0134,0.12085 -0.0403,0.22827 -0.0134,0.094 -0.0671,0.17456 -0.0403,0.0806 -0.12085,0.16114 -0.0671,0.0671 -0.42969,0.2417 -0.36255,0.16113 -0.93994,0.32226 -0.57739,0.16113 -1.34277,0.28198 -0.75195,0.13428 -1.61133,0.13428 -1.49048,0 -2.61841,-0.41626 -1.1145,-0.41626 -1.87988,-1.23535 -0.76538,-0.81909 -1.15479,-2.05444 -0.3894,-1.23535 -0.3894,-2.87354 0,-1.55762 0.40283,-2.79297 0.40283,-1.24878 1.15479,-2.10815 0.76538,-0.8728 1.8396,-1.32935 1.07422,-0.46997 2.40356,-0.46997 1.42334,0 2.41699,0.45655 1.00708,0.45654 1.65162,1.23535 0.64453,0.76538 0.93994,1.81274 0.30883,1.03394 0.30883,2.21558 z m -2.229,-0.65796 q 0.0403,-1.74561 -0.77881,-2.73926 -0.80566,-0.99365 -2.40356,-0.99365 -0.81909,0 -1.43677,0.30884 -0.61768,0.30884 -1.03394,0.81909 -0.41626,0.51025 -0.64453,1.19507 -0.22827,0.67138 -0.25512,1.40991 z"
       style="font-style:normal;font-variant:normal;font-weight:normal;font-stretch:normal;font-size:27.5px;line-height:1.25;font-family:Calibri;-inkscape-font-specification:Calibri;fill:#000000"
       id="path3773" />
    <path
       d="m 440.35034,480.14426 q 0,0.29541 -0.0134,0.49682 -0.0134,0.20142 -0.0537,0.32227 -0.0403,0.10742 -0.10742,0.17456 -0.0537,0.0537 -0.16113,0.0537 -0.10742,0 -0.26856,-0.0537 -0.1477,-0.0671 -0.34912,-0.12085 -0.18799,-0.0671 -0.42968,-0.12085 -0.2417,-0.0537 -0.52369,-0.0537 -0.33569,0 -0.65796,0.13428 -0.32226,0.13427 -0.68481,0.44311 -0.34912,0.30884 -0.73853,0.81909 -0.3894,0.51026 -0.85937,1.24878 v 7.94922 q 0,0.10742 -0.0537,0.18799 -0.0537,0.0671 -0.17456,0.12085 -0.12085,0.0537 -0.3357,0.0806 -0.21484,0.0269 -0.55053,0.0269 -0.32227,0 -0.53711,-0.0269 -0.21485,-0.0269 -0.34912,-0.0806 -0.12085,-0.0537 -0.17456,-0.12085 -0.0403,-0.0806 -0.0403,-0.18799 v -12.08496 q 0,-0.10742 0.0403,-0.17456 0.0403,-0.0806 0.16113,-0.13428 0.12085,-0.0671 0.30884,-0.0806 0.18799,-0.0269 0.49682,-0.0269 0.29541,0 0.4834,0.0269 0.20142,0.0134 0.30884,0.0806 0.10742,0.0537 0.1477,0.13428 0.0537,0.0671 0.0537,0.17456 v 1.75903 q 0.49682,-0.72509 0.92651,-1.18164 0.44311,-0.45654 0.83252,-0.71167 0.3894,-0.26855 0.76538,-0.36255 0.3894,-0.10742 0.77881,-0.10742 0.17456,0 0.3894,0.0269 0.22827,0.0134 0.46997,0.0671 0.2417,0.0537 0.42969,0.12085 0.20142,0.0671 0.28198,0.13427 0.0806,0.0671 0.10743,0.13428 0.0268,0.0537 0.0403,0.14771 0.0268,0.094 0.0268,0.28198 0.0134,0.17456 0.0134,0.4834 z"
       style="font-style:normal;font-variant:normal;font-weight:normal;font-stretch:normal;font-size:27.5px;line-height:1.25;font-family:Calibri;-inkscape-font-specification:Calibri;fill:#000000"
       id="path3775" />
    <path
       d="m 450.00488,488.14719 q 0,0.92651 -0.34912,1.65161 -0.33569,0.7251 -0.9668,1.22192 -0.6311,0.49683 -1.5039,0.75195 -0.8728,0.25513 -1.92017,0.25513 -0.64453,0 -1.23535,-0.10742 -0.57739,-0.094 -1.04736,-0.2417 -0.45655,-0.16113 -0.77881,-0.32227 -0.32227,-0.17456 -0.46997,-0.30883 -0.14771,-0.13428 -0.21485,-0.37598 -0.0671,-0.2417 -0.0671,-0.65796 0,-0.25513 0.0269,-0.42969 0.0269,-0.17456 0.0671,-0.28198 0.0403,-0.10742 0.10742,-0.1477 0.0806,-0.0537 0.17456,-0.0537 0.14771,0 0.42969,0.18798 0.29541,0.17456 0.71167,0.38941 0.42969,0.21484 1.00708,0.40283 0.57739,0.17456 1.32935,0.17456 0.56396,0 1.0205,-0.12085 0.45655,-0.12085 0.79224,-0.34912 0.33569,-0.2417 0.51025,-0.60425 0.18799,-0.36255 0.18799,-0.85937 0,-0.51026 -0.26855,-0.85938 -0.25513,-0.34912 -0.68482,-0.61767 -0.42968,-0.26856 -0.96679,-0.46997 -0.53711,-0.21485 -1.11451,-0.44312 -0.56396,-0.22827 -1.1145,-0.51025 -0.53711,-0.29541 -0.96679,-0.71167 -0.42969,-0.41626 -0.69825,-0.99366 -0.25512,-0.57739 -0.25512,-1.38305 0,-0.71167 0.26855,-1.3562 0.28198,-0.65796 0.83252,-1.14136 0.55054,-0.49683 1.36963,-0.79224 0.83252,-0.29541 1.93359,-0.29541 0.4834,0 0.9668,0.0806 0.4834,0.0806 0.8728,0.20141 0.38941,0.12085 0.65796,0.26856 0.28198,0.13428 0.41626,0.2417 0.14771,0.10742 0.18799,0.18799 0.0537,0.0806 0.0671,0.18799 0.0269,0.094 0.0403,0.24169 0.0269,0.14771 0.0269,0.36255 0,0.22827 -0.0269,0.40284 -0.0134,0.16113 -0.0671,0.26855 -0.0403,0.10742 -0.10742,0.16113 -0.0671,0.0403 -0.1477,0.0403 -0.12085,0 -0.34913,-0.14771 -0.22827,-0.1477 -0.59082,-0.30884 -0.36254,-0.17456 -0.85937,-0.32226 -0.4834,-0.14771 -1.1145,-0.14771 -0.56397,0 -0.99365,0.13428 -0.42969,0.12085 -0.71167,0.36255 -0.26856,0.22827 -0.41626,0.55054 -0.13428,0.32226 -0.13428,0.69824 0,0.52368 0.26855,0.88623 0.26856,0.34912 0.69825,0.61767 0.42968,0.26856 0.98022,0.4834 0.55054,0.21485 1.1145,0.44312 0.57739,0.22827 1.12793,0.51025 0.56397,0.28198 0.99365,0.68482 0.42969,0.40283 0.68482,0.96679 0.26855,0.56397 0.26855,1.34278 z"
       style="font-style:normal;font-variant:normal;font-weight:normal;font-stretch:normal;font-size:27.5px;line-height:1.25;font-family:Calibri;-inkscape-font-specification:Calibri;fill:#000000"
       id="path3777" />
  </g>
</svg>
