<?xml version="1.0" encoding="UTF-8" standalone="no"?>
<!-- Created with Inkscape (http://www.inkscape.org/) -->

<svg
   xmlns:dc="http://purl.org/dc/elements/1.1/"
   xmlns:cc="http://creativecommons.org/ns#"
   xmlns:rdf="http://www.w3.org/1999/02/22-rdf-syntax-ns#"
   xmlns:svg="http://www.w3.org/2000/svg"
   xmlns="http://www.w3.org/2000/svg"
   xmlns:sodipodi="http://sodipodi.sourceforge.net/DTD/sodipodi-0.dtd"
   xmlns:inkscape="http://www.inkscape.org/namespaces/inkscape"
   width="853.33331"
   height="640"
   id="svg4136"
   version="1.1"
   inkscape:version="0.92.1 r15371"
   viewBox="0 0 800 600"
   sodipodi:docname="slide-2-addition.svg">
  <defs
     id="defs4138">
    <pattern
       patternUnits="userSpaceOnUse"
       width="221"
       height="220.97149"
       patternTransform="translate(88.666667,86.51425)"
       id="pattern6454">
      <path
         inkscape:connector-curvature="0"
         id="path6336"
         d="m 0.5,0 0,220.48575"
         style="fill:none;fill-rule:evenodd;stroke:#000000;stroke-width:0.97034842px;stroke-linecap:butt;stroke-linejoin:miter;stroke-opacity:1" />
      <path
         style="fill:none;fill-rule:evenodd;stroke:#000000;stroke-width:0.97034842px;stroke-linecap:butt;stroke-linejoin:miter;stroke-opacity:1"
         d="m 20.500003,0 0,220.48575"
         id="path6338"
         inkscape:connector-curvature="0" />
      <path
         style="fill:none;fill-rule:evenodd;stroke:#000000;stroke-width:0.97034842px;stroke-linecap:butt;stroke-linejoin:miter;stroke-opacity:1"
         d="m 40.500003,0 0,220.48575"
         id="path6340"
         inkscape:connector-curvature="0" />
      <path
         inkscape:connector-curvature="0"
         id="path6342"
         d="m 60.500003,0 0,220.48575"
         style="fill:none;fill-rule:evenodd;stroke:#000000;stroke-width:0.97034842px;stroke-linecap:butt;stroke-linejoin:miter;stroke-opacity:1" />
      <path
         style="fill:none;fill-rule:evenodd;stroke:#000000;stroke-width:0.97034842px;stroke-linecap:butt;stroke-linejoin:miter;stroke-opacity:1"
         d="m 80.500003,0 0,220.48575"
         id="path6344"
         inkscape:connector-curvature="0" />
      <path
         inkscape:connector-curvature="0"
         id="path6346"
         d="m 100.5,0 0,220.48575"
         style="fill:none;fill-rule:evenodd;stroke:#000000;stroke-width:0.97034842px;stroke-linecap:butt;stroke-linejoin:miter;stroke-opacity:1" />
      <path
         inkscape:connector-curvature="0"
         id="path6348"
         d="m 120.5,0 0,220.48575"
         style="fill:none;fill-rule:evenodd;stroke:#000000;stroke-width:0.97034842px;stroke-linecap:butt;stroke-linejoin:miter;stroke-opacity:1" />
      <path
         style="fill:none;fill-rule:evenodd;stroke:#000000;stroke-width:0.97034842px;stroke-linecap:butt;stroke-linejoin:miter;stroke-opacity:1"
         d="m 140.5,0 0,220.48575"
         id="path6350"
         inkscape:connector-curvature="0" />
      <path
         style="fill:none;fill-rule:evenodd;stroke:#000000;stroke-width:0.97034842px;stroke-linecap:butt;stroke-linejoin:miter;stroke-opacity:1"
         d="m 160.5,0 0,220.48575"
         id="path6352"
         inkscape:connector-curvature="0" />
      <path
         inkscape:connector-curvature="0"
         id="path6354"
         d="m 180.5,0 0,220.48575"
         style="fill:none;fill-rule:evenodd;stroke:#000000;stroke-width:0.97034842px;stroke-linecap:butt;stroke-linejoin:miter;stroke-opacity:1" />
      <path
         inkscape:connector-curvature="0"
         id="path6356"
         d="m 200.5,0 0,220.48575"
         style="fill:none;fill-rule:evenodd;stroke:#000000;stroke-width:0.97034842px;stroke-linecap:butt;stroke-linejoin:miter;stroke-opacity:1" />
      <path
         style="fill:none;fill-rule:evenodd;stroke:#000000;stroke-width:0.97034842px;stroke-linecap:butt;stroke-linejoin:miter;stroke-opacity:1"
         d="m 220.5,0 0,220.48575"
         id="path6358"
         inkscape:connector-curvature="0" />
      <g
         id="g6440"
         transform="translate(-88.666667,-86.51425)">
        <path
           style="fill:none;fill-rule:evenodd;stroke:#000000;stroke-width:0.97147942px;stroke-linecap:butt;stroke-linejoin:miter;stroke-opacity:1"
           d="m 88.666667,307 221.000003,0"
           id="path6336-2"
           inkscape:connector-curvature="0" />
        <path
           inkscape:connector-curvature="0"
           id="path6338-8"
           d="m 88.666667,286.99999 221.000003,0"
           style="fill:none;fill-rule:evenodd;stroke:#000000;stroke-width:0.97147942px;stroke-linecap:butt;stroke-linejoin:miter;stroke-opacity:1" />
        <path
           inkscape:connector-curvature="0"
           id="path6340-0"
           d="m 88.666667,266.99999 221.000003,0"
           style="fill:none;fill-rule:evenodd;stroke:#000000;stroke-width:0.97147942px;stroke-linecap:butt;stroke-linejoin:miter;stroke-opacity:1" />
        <path
           style="fill:none;fill-rule:evenodd;stroke:#000000;stroke-width:0.97147942px;stroke-linecap:butt;stroke-linejoin:miter;stroke-opacity:1"
           d="m 88.666667,246.99999 221.000003,0"
           id="path6342-2"
           inkscape:connector-curvature="0" />
        <path
           inkscape:connector-curvature="0"
           id="path6344-5"
           d="m 88.666667,226.99999 221.000003,0"
           style="fill:none;fill-rule:evenodd;stroke:#000000;stroke-width:0.97147942px;stroke-linecap:butt;stroke-linejoin:miter;stroke-opacity:1" />
        <path
           style="fill:none;fill-rule:evenodd;stroke:#000000;stroke-width:0.97147942px;stroke-linecap:butt;stroke-linejoin:miter;stroke-opacity:1"
           d="m 88.666667,206.99999 221.000003,0"
           id="path6346-3"
           inkscape:connector-curvature="0" />
        <path
           style="fill:none;fill-rule:evenodd;stroke:#000000;stroke-width:0.97147942px;stroke-linecap:butt;stroke-linejoin:miter;stroke-opacity:1"
           d="m 88.666667,186.99999 221.000003,0"
           id="path6348-7"
           inkscape:connector-curvature="0" />
        <path
           inkscape:connector-curvature="0"
           id="path6350-9"
           d="m 88.666667,166.99999 221.000003,0"
           style="fill:none;fill-rule:evenodd;stroke:#000000;stroke-width:0.97147942px;stroke-linecap:butt;stroke-linejoin:miter;stroke-opacity:1" />
        <path
           inkscape:connector-curvature="0"
           id="path6352-2"
           d="m 88.666667,146.99999 221.000003,0"
           style="fill:none;fill-rule:evenodd;stroke:#000000;stroke-width:0.97147942px;stroke-linecap:butt;stroke-linejoin:miter;stroke-opacity:1" />
        <path
           style="fill:none;fill-rule:evenodd;stroke:#000000;stroke-width:0.97147942px;stroke-linecap:butt;stroke-linejoin:miter;stroke-opacity:1"
           d="m 88.666667,126.99999 221.000003,0"
           id="path6354-1"
           inkscape:connector-curvature="0" />
        <path
           style="fill:none;fill-rule:evenodd;stroke:#000000;stroke-width:0.97147942px;stroke-linecap:butt;stroke-linejoin:miter;stroke-opacity:1"
           d="m 88.666667,106.99999 221.000003,0"
           id="path6356-0"
           inkscape:connector-curvature="0" />
        <path
           inkscape:connector-curvature="0"
           id="path6358-6"
           d="m 88.666667,86.99999 221.000003,0"
           style="fill:none;fill-rule:evenodd;stroke:#000000;stroke-width:0.97147942px;stroke-linecap:butt;stroke-linejoin:miter;stroke-opacity:1" />
      </g>
    </pattern>
  </defs>
  <sodipodi:namedview
     id="base"
     pagecolor="#ffffff"
     bordercolor="#666666"
     borderopacity="1.0"
     inkscape:pageopacity="0.0"
     inkscape:pageshadow="2"
     inkscape:zoom="1.2"
     inkscape:cx="523.87467"
     inkscape:cy="331.88008"
     inkscape:current-layer="svg4136"
     inkscape:document-units="px"
     showgrid="false"
     inkscape:snap-bbox="true"
     inkscape:bbox-paths="true"
     inkscape:snap-bbox-edge-midpoints="true"
     inkscape:bbox-nodes="true"
     inkscape:snap-bbox-midpoints="true"
     inkscape:object-paths="true"
     inkscape:snap-intersection-paths="true"
     inkscape:object-nodes="true"
     inkscape:snap-smooth-nodes="true"
     inkscape:snap-midpoints="true"
     inkscape:snap-page="true"
     inkscape:snap-object-midpoints="true"
     inkscape:snap-center="true"
     inkscape:snap-text-baseline="true"
     inkscape:window-width="1858"
     inkscape:window-height="1177"
     inkscape:window-x="54"
     inkscape:window-y="-8"
     inkscape:window-maximized="1" />
  <metadata
     id="metadata4141">
    <rdf:RDF>
      <cc:Work
         rdf:about="">
        <dc:format>image/svg+xml</dc:format>
        <dc:type
           rdf:resource="http://purl.org/dc/dcmitype/StillImage" />
        <dc:title />
      </cc:Work>
    </rdf:RDF>
  </metadata>
  <g
     id="layer1"
     inkscape:label="Layer 1"
     inkscape:groupmode="layer"
     sodipodi:insensitive="true">
    <rect
       style="opacity:1;fill:#e5d9ce;fill-opacity:1;fill-rule:nonzero;stroke:none;stroke-width:5;stroke-linejoin:miter;stroke-miterlimit:4;stroke-dasharray:none;stroke-opacity:1"
       id="rect4686"
       width="800"
       height="600"
       x="0"
       y="0"
       sodipodi:insensitive="true" />
    <rect
       style="opacity:0.26199999;fill:url(#pattern6454);fill-opacity:1;stroke:none"
       width="800"
       height="600"
       x="0"
       y="0"
       id="rect6481"
       sodipodi:insensitive="true" />
  </g>
  <rect
     style="opacity:0.48300003;fill:#ffffff;fill-opacity:1;fill-rule:nonzero;stroke:none;stroke-width:4.50141382;stroke-linejoin:miter;stroke-miterlimit:4;stroke-dasharray:none;stroke-opacity:1"
     id="rect5742"
     width="800.00006"
     height="185.15625"
     x="-4.3869019e-005"
     y="414.84375" />
  <flowRoot
     xml:space="preserve"
     id="flowRoot6513"
     style="font-style:normal;font-weight:normal;line-height:0.01%;font-family:sans-serif;text-align:center;letter-spacing:0px;word-spacing:0px;text-anchor:middle;fill:#000000;fill-opacity:1;stroke:none;stroke-width:1px;stroke-linecap:butt;stroke-linejoin:miter;stroke-opacity:1"><flowRegion
       id="flowRegion6515"
       style="font-family:sans-serif"><rect
         id="rect6517"
         width="800"
         height="166.66667"
         x="0"
         y="433.33334"
         style="font-family:sans-serif" /></flowRegion><flowPara
       style="font-style:normal;font-variant:normal;font-weight:normal;font-stretch:normal;font-size:27.5px;line-height:1.25;font-family:Calibri;-inkscape-font-specification:Calibri"
       id="flowPara7719">+</flowPara><flowPara
       style="font-style:normal;font-variant:normal;font-weight:normal;font-stretch:normal;font-size:27.5px;line-height:1.25;font-family:Calibri;-inkscape-font-specification:Calibri"
       id="flowPara6359">Addition</flowPara></flowRoot>  <path
     style="fill:#800000;fill-rule:evenodd;stroke:#550000;stroke-width:5;stroke-linecap:butt;stroke-linejoin:miter;stroke-miterlimit:4;stroke-dasharray:none;stroke-opacity:1"
     d="M 510.40317,308.0055 V 288.56006"
     id="path6521"
     inkscape:connector-curvature="0" />
  <path
     inkscape:connector-curvature="0"
     id="path6523"
     d="M 531.72255,308.00551 V 167.1734"
     style="fill:#aa4400;fill-rule:evenodd;stroke:#aa4400;stroke-width:5;stroke-linecap:butt;stroke-linejoin:miter;stroke-miterlimit:4;stroke-dasharray:none;stroke-opacity:1" />
  <path
     style="fill:#806600;fill-rule:evenodd;stroke:#806600;stroke-width:5.04930496;stroke-linecap:butt;stroke-linejoin:miter;stroke-miterlimit:4;stroke-dasharray:none;stroke-opacity:1"
     d="M 510.40317,288.56006 V 167.27747"
     id="path6529"
     inkscape:connector-curvature="0"
     sodipodi:nodetypes="cc" />
  <text
     xml:space="preserve"
     style="font-style:normal;font-weight:normal;line-height:0%;font-family:sans-serif;text-align:center;letter-spacing:0px;word-spacing:0px;text-anchor:middle;fill:#550000;fill-opacity:1;stroke:#550000;stroke-width:1px;stroke-linecap:butt;stroke-linejoin:miter;stroke-opacity:1"
     x="486.20535"
     y="306.30661"
     id="text6531"><tspan
       sodipodi:role="line"
       id="tspan6533"
       x="486.20535"
       y="306.30661"
       style="font-style:normal;font-variant:normal;font-weight:normal;font-stretch:normal;font-size:25px;line-height:1.25;font-family:Calibri;-inkscape-font-specification:Calibri;fill:#550000;stroke:#550000">1</tspan></text>
  <text
     id="text6535"
     y="248.32735"
     x="551.71887"
     style="font-style:normal;font-weight:normal;line-height:0%;font-family:sans-serif;text-align:center;letter-spacing:0px;word-spacing:0px;text-anchor:middle;fill:#aa4400;fill-opacity:1;stroke:#aa4400;stroke-width:1px;stroke-linecap:butt;stroke-linejoin:miter;stroke-opacity:1"
     xml:space="preserve"><tspan
       style="font-style:normal;font-variant:normal;font-weight:normal;font-stretch:normal;font-size:25px;line-height:1.25;font-family:Calibri;-inkscape-font-specification:Calibri;fill:#aa4400;stroke:#aa4400"
       y="248.32735"
       x="551.71887"
       sodipodi:role="line"
       id="tspan7723">7</tspan></text>
  <text
     xml:space="preserve"
     style="font-style:normal;font-weight:normal;line-height:0%;font-family:sans-serif;text-align:center;letter-spacing:0px;word-spacing:0px;text-anchor:middle;fill:#806600;fill-opacity:1;stroke:#806600;stroke-width:1px;stroke-linecap:butt;stroke-linejoin:miter;stroke-opacity:1"
     x="486.79462"
     y="239.72075"
     id="text6539"><tspan
       sodipodi:role="line"
       x="486.79462"
       y="239.72075"
       style="font-style:normal;font-variant:normal;font-weight:normal;font-stretch:normal;font-size:25px;line-height:1.25;font-family:Calibri;-inkscape-font-specification:Calibri;fill:#806600;stroke:#806600"
       id="tspan6543">6</tspan></text>
  <path
     inkscape:connector-curvature="0"
     id="path7727"
     d="M 288.18476,307.51736 V 268.07192"
     style="fill:#800000;fill-rule:evenodd;stroke:#800000;stroke-width:5;stroke-linecap:butt;stroke-linejoin:miter;stroke-miterlimit:4;stroke-dasharray:none;stroke-opacity:1"
     sodipodi:nodetypes="cc" />
  <path
     style="fill:#aa4400;fill-rule:evenodd;stroke:#aa4400;stroke-width:5;stroke-linecap:butt;stroke-linejoin:miter;stroke-miterlimit:4;stroke-dasharray:none;stroke-opacity:1"
     d="M 309.50414,307.51737 V 206.68526"
     id="path7729"
     inkscape:connector-curvature="0"
     sodipodi:nodetypes="cc" />
  <path
     sodipodi:nodetypes="cc"
     inkscape:connector-curvature="0"
     id="path7731"
     d="M 288.18476,269.80499 V 206.5224"
     style="fill:#806600;fill-rule:evenodd;stroke:#806600;stroke-width:5.04930496;stroke-linecap:butt;stroke-linejoin:miter;stroke-miterlimit:4;stroke-dasharray:none;stroke-opacity:1" />
  <text
     id="text7733"
     y="297.81845"
     x="263.98691"
     style="font-style:normal;font-weight:normal;line-height:0%;font-family:sans-serif;text-align:center;letter-spacing:0px;word-spacing:0px;text-anchor:middle;fill:#800000;fill-opacity:1;stroke:#800000;stroke-width:1px;stroke-linecap:butt;stroke-linejoin:miter;stroke-opacity:1"
     xml:space="preserve"><tspan
       style="font-style:normal;font-variant:normal;font-weight:normal;font-stretch:normal;font-size:25px;line-height:1.25;font-family:Calibri;-inkscape-font-specification:Calibri;fill:#800000;stroke:#800000"
       y="297.81845"
       x="263.98691"
       id="tspan7735"
       sodipodi:role="line">2</tspan></text>
  <text
     xml:space="preserve"
     style="font-style:normal;font-weight:normal;line-height:0%;font-family:sans-serif;text-align:center;letter-spacing:0px;word-spacing:0px;text-anchor:middle;fill:#aa4400;fill-opacity:1;stroke:#aa4400;stroke-width:1px;stroke-linecap:butt;stroke-linejoin:miter;stroke-opacity:1"
     x="332.44678"
     y="265.15982"
     id="text7737"><tspan
       sodipodi:role="line"
       x="332.44678"
       y="265.15982"
       style="font-style:normal;font-variant:normal;font-weight:normal;font-stretch:normal;font-size:25px;line-height:1.25;font-family:Calibri;-inkscape-font-specification:Calibri;fill:#aa4400;stroke:#aa4400"
       id="tspan7745">5</tspan></text>
  <text
     id="text7741"
     y="245.2326"
     x="264.57617"
     style="font-style:normal;font-weight:normal;line-height:0%;font-family:sans-serif;text-align:center;letter-spacing:0px;word-spacing:0px;text-anchor:middle;fill:#806600;fill-opacity:1;stroke:#806600;stroke-width:1px;stroke-linecap:butt;stroke-linejoin:miter;stroke-opacity:1"
     xml:space="preserve"><tspan
       id="tspan7743"
       style="font-style:normal;font-variant:normal;font-weight:normal;font-stretch:normal;font-size:25px;line-height:1.25;font-family:Calibri;-inkscape-font-specification:Calibri;fill:#806600;stroke:#806600"
       y="245.2326"
       x="264.57617"
       sodipodi:role="line">3</tspan></text>
  <g
     aria-label="+
Addition"
     style="font-style:normal;font-weight:normal;line-height:0.01%;font-family:sans-serif;text-align:center;letter-spacing:0px;word-spacing:0px;text-anchor:middle;fill:#000000;fill-opacity:1;stroke:none;stroke-width:1px;stroke-linecap:butt;stroke-linejoin:miter;stroke-opacity:1"
     id="flowRoot3845">
    <path
       d="m 405.9082,449.66211 q 0,0.25513 -0.0403,0.44311 -0.0403,0.17457 -0.10742,0.29541 -0.0671,0.12085 -0.16113,0.17457 -0.094,0.0537 -0.20142,0.0537 h -4.4043 v 4.88769 q 0,0.10742 -0.0537,0.18799 -0.0537,0.0671 -0.17456,0.12085 -0.10742,0.0537 -0.29541,0.094 -0.18799,0.0269 -0.46997,0.0269 -0.26855,0 -0.46997,-0.0269 -0.18799,-0.0403 -0.30884,-0.094 -0.10742,-0.0537 -0.16113,-0.12085 -0.0537,-0.0806 -0.0537,-0.18799 v -4.88769 h -4.4043 q -0.12085,0 -0.21484,-0.0537 -0.0806,-0.0537 -0.14771,-0.17457 -0.0671,-0.12084 -0.10742,-0.29541 -0.0403,-0.18798 -0.0403,-0.44311 0,-0.2417 0.0403,-0.41626 0.0403,-0.18799 0.10742,-0.30884 0.0671,-0.12085 0.14771,-0.17456 0.094,-0.0537 0.20141,-0.0537 h 4.41773 v -4.8877 q 0,-0.10742 0.0537,-0.18798 0.0537,-0.094 0.16113,-0.14771 0.12085,-0.0671 0.30884,-0.094 0.20142,-0.0403 0.46997,-0.0403 0.28198,0 0.46997,0.0403 0.18799,0.0268 0.29541,0.094 0.12085,0.0537 0.17456,0.14771 0.0537,0.0806 0.0537,0.18798 v 4.8877 h 4.41773 q 0.10742,0 0.18799,0.0537 0.094,0.0537 0.16113,0.17456 0.0806,0.12085 0.10742,0.30884 0.0403,0.17456 0.0403,0.41626 z"
       style="font-style:normal;font-variant:normal;font-weight:normal;font-stretch:normal;font-size:27.5px;line-height:1.25;font-family:Calibri;-inkscape-font-specification:Calibri"
       id="path3847" />
    <path
       d="m 367.62573,490.95239 q 0.10742,0.29541 0.10742,0.4834 0.0134,0.17456 -0.094,0.26856 -0.10742,0.094 -0.36255,0.12085 -0.2417,0.0269 -0.65796,0.0269 -0.41626,0 -0.67138,-0.0269 -0.2417,-0.0134 -0.37598,-0.0537 -0.12085,-0.0537 -0.18799,-0.13427 -0.0537,-0.0806 -0.10742,-0.20142 l -1.49048,-4.22974 h -7.22412 l -1.42334,4.17603 q -0.0403,0.12085 -0.10742,0.21484 -0.0671,0.0806 -0.20142,0.14771 -0.12085,0.0537 -0.36255,0.0806 -0.22827,0.0269 -0.60425,0.0269 -0.3894,0 -0.64453,-0.0403 -0.2417,-0.0269 -0.34912,-0.12085 -0.094,-0.094 -0.094,-0.26856 0.0134,-0.18799 0.12085,-0.4834 l 5.82763,-16.14013 q 0.0537,-0.14771 0.13428,-0.2417 0.094,-0.094 0.25513,-0.14771 0.17456,-0.0537 0.42969,-0.0671 0.26855,-0.0269 0.67138,-0.0269 0.42969,0 0.71167,0.0269 0.28199,0.0134 0.45655,0.0671 0.17456,0.0537 0.26855,0.16114 0.094,0.094 0.14771,0.2417 z m -7.47925,-14.24682 h -0.0134 l -2.99439,8.66089 h 6.04248 z"
       style="font-style:normal;font-variant:normal;font-weight:normal;font-stretch:normal;font-size:27.5px;line-height:1.25;font-family:Calibri;-inkscape-font-specification:Calibri"
       id="path3849" />
    <path
       d="m 380.61035,491.43579 q 0,0.10742 -0.0537,0.18799 -0.0403,0.0806 -0.16113,0.13428 -0.10742,0.0403 -0.29541,0.0671 -0.18799,0.0269 -0.45655,0.0269 -0.28198,0 -0.46997,-0.0269 -0.18798,-0.0269 -0.30883,-0.0671 -0.12085,-0.0537 -0.17456,-0.13428 -0.0537,-0.0806 -0.0537,-0.18799 v -1.5979 q -0.95336,1.03394 -1.9873,1.61133 -1.02051,0.57739 -2.24243,0.57739 -1.32935,0 -2.26929,-0.51025 -0.93994,-0.52368 -1.53076,-1.39649 -0.57739,-0.88623 -0.84595,-2.06787 -0.26855,-1.19507 -0.26855,-2.51098 0,-1.55762 0.33569,-2.8064 0.33569,-1.26221 0.99365,-2.14844 0.65796,-0.88623 1.62476,-1.3562 0.98022,-0.4834 2.25586,-0.4834 1.06079,0 1.93359,0.46997 0.88623,0.45655 1.74561,1.3562 v -7.0227 q 0,-0.094 0.0403,-0.17456 0.0537,-0.094 0.18799,-0.13428 0.13428,-0.0537 0.33569,-0.0806 0.21485,-0.0403 0.53711,-0.0403 0.3357,0 0.55054,0.0403 0.21484,0.0269 0.33569,0.0806 0.12085,0.0403 0.17456,0.13428 0.0671,0.0806 0.0671,0.17456 z m -2.229,-8.49975 q -0.89966,-1.11451 -1.74561,-1.6919 -0.83252,-0.59082 -1.7456,-0.59082 -0.84595,0 -1.43677,0.40283 -0.59082,0.40283 -0.9668,1.06079 -0.36255,0.65796 -0.53711,1.49048 -0.16113,0.83252 -0.16113,1.6919 0,0.91308 0.13428,1.78589 0.1477,0.8728 0.49682,1.55761 0.34912,0.67139 0.92652,1.08765 0.57739,0.40283 1.45019,0.40283 0.44312,0 0.84595,-0.12085 0.41626,-0.12085 0.84595,-0.40283 0.42968,-0.28198 0.89966,-0.7251 0.46997,-0.45654 0.99365,-1.1145 z"
       style="font-style:normal;font-variant:normal;font-weight:normal;font-stretch:normal;font-size:27.5px;line-height:1.25;font-family:Calibri;-inkscape-font-specification:Calibri"
       id="path3851" />
    <path
       d="m 395.05859,491.43579 q 0,0.10742 -0.0537,0.18799 -0.0403,0.0806 -0.16113,0.13428 -0.10742,0.0403 -0.29541,0.0671 -0.18799,0.0269 -0.45654,0.0269 -0.28199,0 -0.46997,-0.0269 -0.18799,-0.0269 -0.30884,-0.0671 -0.12085,-0.0537 -0.17456,-0.13428 -0.0537,-0.0806 -0.0537,-0.18799 v -1.5979 q -0.95337,1.03394 -1.98731,1.61133 -1.02051,0.57739 -2.24243,0.57739 -1.32935,0 -2.26929,-0.51025 -0.93994,-0.52368 -1.53076,-1.39649 -0.57739,-0.88623 -0.84595,-2.06787 -0.26855,-1.19507 -0.26855,-2.51098 0,-1.55762 0.33569,-2.8064 0.3357,-1.26221 0.99366,-2.14844 0.65795,-0.88623 1.62475,-1.3562 0.98023,-0.4834 2.25586,-0.4834 1.06079,0 1.93359,0.46997 0.88623,0.45655 1.74561,1.3562 v -7.0227 q 0,-0.094 0.0403,-0.17456 0.0537,-0.094 0.18799,-0.13428 0.13428,-0.0537 0.33569,-0.0806 0.21485,-0.0403 0.53711,-0.0403 0.3357,0 0.55054,0.0403 0.21484,0.0269 0.33569,0.0806 0.12085,0.0403 0.17457,0.13428 0.0671,0.0806 0.0671,0.17456 z m -2.229,-8.49975 q -0.89966,-1.11451 -1.74561,-1.6919 -0.83252,-0.59082 -1.7456,-0.59082 -0.84595,0 -1.43677,0.40283 -0.59082,0.40283 -0.9668,1.06079 -0.36254,0.65796 -0.5371,1.49048 -0.16114,0.83252 -0.16114,1.6919 0,0.91308 0.13428,1.78589 0.1477,0.8728 0.49683,1.55761 0.34912,0.67139 0.92651,1.08765 0.57739,0.40283 1.45019,0.40283 0.44312,0 0.84595,-0.12085 0.41626,-0.12085 0.84595,-0.40283 0.42969,-0.28198 0.89966,-0.7251 0.46997,-0.45654 0.99365,-1.1145 z"
       style="font-style:normal;font-variant:normal;font-weight:normal;font-stretch:normal;font-size:27.5px;line-height:1.25;font-family:Calibri;-inkscape-font-specification:Calibri"
       id="path3853" />
    <path
       d="m 401.36963,491.43579 q 0,0.10742 -0.0537,0.18799 -0.0537,0.0671 -0.17456,0.12085 -0.12085,0.0537 -0.3357,0.0806 -0.21484,0.0269 -0.55053,0.0269 -0.32227,0 -0.53711,-0.0269 -0.21485,-0.0269 -0.34912,-0.0806 -0.12085,-0.0537 -0.17456,-0.12085 -0.0403,-0.0806 -0.0403,-0.18799 v -12.08496 q 0,-0.094 0.0403,-0.17456 0.0537,-0.0806 0.17456,-0.13428 0.13427,-0.0537 0.34912,-0.0806 0.21484,-0.0269 0.53711,-0.0269 0.33569,0 0.55053,0.0269 0.21485,0.0268 0.3357,0.0806 0.12085,0.0537 0.17456,0.13428 0.0537,0.0806 0.0537,0.17456 z m 0.25513,-16.16699 q 0,0.77881 -0.29541,1.06079 -0.29541,0.28198 -1.08765,0.28198 -0.77881,0 -1.07422,-0.26855 -0.28198,-0.28198 -0.28198,-1.04737 0,-0.7788 0.29541,-1.06079 0.29541,-0.28198 1.08764,-0.28198 0.77881,0 1.0608,0.28198 0.29541,0.26856 0.29541,1.03394 z"
       style="font-style:normal;font-variant:normal;font-weight:normal;font-stretch:normal;font-size:27.5px;line-height:1.25;font-family:Calibri;-inkscape-font-specification:Calibri"
       id="path3855" />
    <path
       d="m 416.00586,479.00171 q 0.40283,0 0.55054,0.18799 0.1477,0.17456 0.1477,0.52368 v 11.72241 q 0,0.10742 -0.0537,0.18799 -0.0537,0.0671 -0.18799,0.12085 -0.12085,0.0537 -0.33569,0.0806 -0.21484,0.0269 -0.52368,0.0269 -0.3357,0 -0.55054,-0.0269 -0.21484,-0.0269 -0.34912,-0.0806 -0.12085,-0.0537 -0.17456,-0.12085 -0.0537,-0.0806 -0.0537,-0.18799 v -10.59448 h -6.2439 v 6.74072 q 0,1.24878 0.36255,1.89331 0.37598,0.63111 1.32935,0.63111 0.30883,0 0.55053,-0.0537 0.2417,-0.0671 0.42969,-0.13427 0.18799,-0.0671 0.32227,-0.12085 0.13427,-0.0671 0.2417,-0.0671 0.0671,0 0.12084,0.0403 0.0671,0.0269 0.094,0.12085 0.0403,0.094 0.0671,0.25513 0.0268,0.16113 0.0268,0.40283 0,0.3894 -0.0537,0.61768 -0.0537,0.21484 -0.16113,0.33569 -0.10742,0.10742 -0.32227,0.20142 -0.21484,0.094 -0.49682,0.1477 -0.26856,0.0671 -0.5774,0.10742 -0.30883,0.0403 -0.61767,0.0403 -0.93994,0 -1.61133,-0.2417 -0.67139,-0.25513 -1.10107,-0.75196 -0.42969,-0.51025 -0.63111,-1.27563 -0.18799,-0.77881 -0.18799,-1.82617 v -7.06299 h -1.69189 q -0.20142,0 -0.32227,-0.21485 -0.12084,-0.21484 -0.12084,-0.69824 0,-0.25512 0.0268,-0.42968 0.0403,-0.17457 0.094,-0.28199 0.0537,-0.12085 0.13428,-0.16113 0.094,-0.0537 0.20142,-0.0537 h 1.67846 v -2.87354 q 0,-0.094 0.0403,-0.17456 0.0537,-0.0806 0.17456,-0.13427 0.13428,-0.0671 0.34912,-0.094 0.21484,-0.0269 0.53711,-0.0269 0.33569,0 0.55054,0.0269 0.21484,0.0269 0.33569,0.094 0.12085,0.0537 0.17456,0.13427 0.0537,0.0806 0.0537,0.17456 v 2.87354 z m 0.95337,-3.73291 q 0,0.77881 -0.29541,1.06079 -0.29541,0.28198 -1.08765,0.28198 -0.77881,0 -1.07422,-0.26855 -0.28198,-0.28198 -0.28198,-1.04737 0,-0.7788 0.29541,-1.06079 0.29541,-0.28198 1.08765,-0.28198 0.77881,0 1.06079,0.28198 0.29541,0.26856 0.29541,1.03394 z m -4.52515,3.73291 z"
       style="font-style:normal;font-variant:normal;font-weight:normal;font-stretch:normal;font-size:27.5px;line-height:1.25;font-family:Calibri;-inkscape-font-specification:Calibri"
       id="path3857" />
    <path
       d="m 432.03857,485.25903 q 0,1.47705 -0.3894,2.72583 -0.3894,1.23535 -1.16821,2.13501 -0.76538,0.89966 -1.9336,1.40992 -1.15478,0.49682 -2.68554,0.49682 -1.49048,0 -2.60498,-0.44311 -1.10108,-0.44312 -1.8396,-1.28907 -0.73853,-0.84594 -1.10108,-2.05444 -0.36255,-1.2085 -0.36255,-2.73926 0,-1.47705 0.37598,-2.7124 0.3894,-1.24878 1.15478,-2.14844 0.77881,-0.89966 1.9336,-1.39648 1.15478,-0.49683 2.69897,-0.49683 1.49048,0 2.59156,0.44312 1.1145,0.44311 1.85302,1.28906 0.73853,0.84595 1.10108,2.05444 0.37597,1.2085 0.37597,2.72583 z m -2.33642,0.14771 q 0,-0.98023 -0.18799,-1.85303 -0.17456,-0.8728 -0.59082,-1.53076 -0.41626,-0.65796 -1.12793,-1.03394 -0.71167,-0.3894 -1.77246,-0.3894 -0.98023,0 -1.6919,0.34912 -0.69824,0.34912 -1.15478,0.99365 -0.45654,0.63111 -0.68481,1.50391 -0.21485,0.8728 -0.21485,1.90674 0,0.99365 0.17456,1.86645 0.18799,0.87281 0.60425,1.53076 0.42969,0.64454 1.14136,1.03394 0.71167,0.37598 1.77246,0.37598 0.9668,0 1.67847,-0.34912 0.71166,-0.34913 1.16821,-0.98023 0.45654,-0.6311 0.67138,-1.50391 0.21485,-0.8728 0.21485,-1.92016 z"
       style="font-style:normal;font-variant:normal;font-weight:normal;font-stretch:normal;font-size:27.5px;line-height:1.25;font-family:Calibri;-inkscape-font-specification:Calibri"
       id="path3859" />
    <path
       d="m 445.70801,491.43579 q 0,0.10742 -0.0537,0.18799 -0.0537,0.0671 -0.17456,0.12085 -0.12085,0.0537 -0.3357,0.0806 -0.21484,0.0269 -0.53711,0.0269 -0.33569,0 -0.55053,-0.0269 -0.21485,-0.0269 -0.3357,-0.0806 -0.12085,-0.0537 -0.17456,-0.12085 -0.0537,-0.0806 -0.0537,-0.18799 v -7.07642 q 0,-1.03393 -0.16113,-1.66503 -0.16113,-0.63111 -0.46997,-1.08765 -0.30884,-0.45654 -0.80567,-0.69824 -0.48339,-0.2417 -1.12793,-0.2417 -0.83252,0 -1.66503,0.59082 -0.83252,0.59082 -1.74561,1.73218 v 8.44604 q 0,0.10742 -0.0537,0.18799 -0.0537,0.0671 -0.17456,0.12085 -0.12085,0.0537 -0.3357,0.0806 -0.21484,0.0269 -0.55053,0.0269 -0.32227,0 -0.53711,-0.0269 -0.21485,-0.0269 -0.34912,-0.0806 -0.12085,-0.0537 -0.17456,-0.12085 -0.0403,-0.0806 -0.0403,-0.18799 v -12.08496 q 0,-0.10742 0.0403,-0.17456 0.0403,-0.0806 0.16113,-0.13428 0.12085,-0.0671 0.30884,-0.0806 0.18799,-0.0269 0.49682,-0.0269 0.29541,0 0.4834,0.0269 0.20142,0.0134 0.30884,0.0806 0.10742,0.0537 0.14771,0.13428 0.0537,0.0671 0.0537,0.17456 v 1.5979 q 1.0205,-1.14136 2.02758,-1.66504 1.02051,-0.53711 2.05445,-0.53711 1.20849,0 2.02759,0.41626 0.83251,0.40283 1.34277,1.08765 0.51025,0.68481 0.7251,1.61133 0.22827,0.91308 0.22827,2.20214 z"
       style="font-style:normal;font-variant:normal;font-weight:normal;font-stretch:normal;font-size:27.5px;line-height:1.25;font-family:Calibri;-inkscape-font-specification:Calibri"
       id="path3861" />
  </g>
</svg>
